<svg xmlns="http://www.w3.org/2000/svg" width="30" height="30" viewBox="0 0 30 30"><g><g><g><path d="M27.184 22.077c.64.634.975 1.387.975 2.172 0 .779-.33 1.539-.956 2.191-.272.285-.551.557-.823.817-.4.386-.78.747-1.108 1.146-.007.013-.02.019-.026.032-.962 1.044-2.19 1.57-3.653 1.57-.127 0-.266-.007-.399-.013-2.172-.14-4.116-.956-5.572-1.646-3.812-1.843-7.148-4.458-9.922-7.77-2.285-2.747-3.818-5.311-4.843-8.078-.418-1.127-.963-2.85-.81-4.699A4.632 4.632 0 0 1 1.42 4.855l2.153-2.172.012-.012c.634-.608 1.38-.931 2.153-.931.773 0 1.507.323 2.121.93.412.38.81.786 1.19 1.178.19.203.393.406.59.602l1.728 1.729c1.33 1.33 1.33 3.051 0 4.381-.177.177-.354.361-.532.538-.468.475-.95.969-1.469 1.444.387.855.918 1.697 1.71 2.697 1.634 2.007 3.337 3.559 5.21 4.749.185.114.4.222.628.336.158.082.323.164.487.253l2.001-1.995c.64-.64 1.387-.975 2.166-.975.785 0 1.526.342 2.14.982zm-1.216 1.197l-3.489-3.489-.012-.012c-.197-.216-.52-.462-.912-.462-.399 0-.741.26-.956.474l-2.166 2.166c-.107.107-.437.437-.962.437-.209 0-.412-.051-.627-.159-.025-.012-.05-.031-.076-.044-.184-.114-.399-.221-.627-.335-.253-.127-.519-.26-.779-.425-2.032-1.285-3.875-2.963-5.622-5.116l-.006-.006c-.963-1.222-1.596-2.248-2.046-3.337l-.019-.057c-.114-.36-.215-.893.33-1.437.006-.013.019-.02.031-.032.551-.494 1.058-1 1.59-1.545.183-.177.36-.36.544-.544.671-.671.671-1.292 0-1.963L8.436 5.659c-.203-.209-.406-.411-.602-.614a31.952 31.952 0 0 0-1.14-1.133l-.019-.02c-.202-.202-.525-.442-.924-.442-.323 0-.652.158-.962.45l-2.16 2.158a2.907 2.907 0 0 0-.873 1.88c-.095 1.16.12 2.388.709 3.964.956 2.584 2.4 4.99 4.559 7.592 2.615 3.122 5.761 5.585 9.345 7.32 1.31.626 3.058 1.36 4.939 1.481.095.006.196.006.291.006.988 0 1.741-.322 2.38-1.006.394-.462.811-.874 1.223-1.267.272-.265.526-.506.772-.772-.006.006-.006 0 0 0 .646-.671.646-1.336-.006-1.982z"/></g><g><path d="M16.214 7.136a8.029 8.029 0 0 1 4.368 2.266 8.071 8.071 0 0 1 2.267 4.37c.07.417.43.708.842.708.051 0 .095-.006.146-.012a.856.856 0 0 0 .703-.988 9.766 9.766 0 0 0-2.742-5.287 9.766 9.766 0 0 0-5.287-2.742.86.86 0 0 0-.988.697.846.846 0 0 0 .69.988z"/></g><g><path d="M29.963 13.234a16.067 16.067 0 0 0-4.514-8.706A16.066 16.066 0 0 0 16.743.013a.852.852 0 0 0-.982.697.859.859 0 0 0 .703.987c2.95.5 5.642 1.9 7.782 4.034a14.345 14.345 0 0 1 4.033 7.781c.07.418.43.71.842.71.051 0 .095-.007.146-.013a.839.839 0 0 0 .697-.975z"/></g></g></g></svg>